<svg xmlns="http://www.w3.org/2000/svg" viewBox="0 0 19.97 36.23"><defs><style>.a{fill:#ffc89f;}.b{fill:#464649;}.c{fill:#f7b081;}.d{fill:#8cc7ec;}.e{fill:#66baea;}</style></defs><title>born</title><path class="a" d="M399.67,385a8.35,8.35,0,0,0-8.34,8.34v2.56a.53.53,0,0,0,.31.48l7.8,3.64a.59.59,0,0,0,.23.05.59.59,0,0,0,.22-.05l7.81-3.64a.52.52,0,0,0,.3-.48v-2.56A8.35,8.35,0,0,0,399.67,385Z" transform="translate(-389.68 -382.61)"/><path class="b" d="M396.58,394.25a1,1,0,1,1,0-2,1,1,0,0,1,0,2Z" transform="translate(-389.68 -382.61)"/><path class="b" d="M402.76,394.25a1,1,0,1,1,0-2,1,1,0,0,1,0,2Z" transform="translate(-389.68 -382.61)"/><path class="c" d="M399.67,385a8.8,8.8,0,0,0-1.16.08,8.35,8.35,0,0,1,7.17,8.26v1.18l-9,4.22,2.73,1.28a.59.59,0,0,0,.23.05.59.59,0,0,0,.22-.05l7.81-3.64a.52.52,0,0,0,.3-.48v-2.56A8.35,8.35,0,0,0,399.67,385Z" transform="translate(-389.68 -382.61)"/><path class="d" d="M408.92,395.5a1.55,1.55,0,0,0-1.53-.1L399.67,399,392,395.4a1.55,1.55,0,0,0-1.53.1,1.58,1.58,0,0,0-.74,1.34v12a10,10,0,1,0,20,0v-12A1.57,1.57,0,0,0,408.92,395.5Z" transform="translate(-389.68 -382.61)"/><path class="e" d="M408.92,395.5a1.55,1.55,0,0,0-1.53-.1l-.71.33a1.57,1.57,0,0,1,.45,1.11v12a10,10,0,0,1-8.72,9.91,10.39,10.39,0,0,0,1.26.08,10,10,0,0,0,10-10v-12A1.57,1.57,0,0,0,408.92,395.5Z" transform="translate(-389.68 -382.61)"/><polygon class="e" points="0 19.46 0 21.13 9.99 16.39 8.29 15.6 0 19.46"/><path class="b" d="M398.81,386.15h0a3.69,3.69,0,0,1-3.36-2.26.52.52,0,0,1,.33-.67.53.53,0,0,1,.67.32,2.52,2.52,0,0,0,1.66,1.4,3.49,3.49,0,0,1,.31-2,.53.53,0,0,1,.71-.25.54.54,0,0,1,.25.71,2.35,2.35,0,0,0,0,2,.55.55,0,0,1,0,.54A.53.53,0,0,1,398.81,386.15Z" transform="translate(-389.68 -382.61)"/></svg>