<svg xmlns="http://www.w3.org/2000/svg" viewBox="0 0 19.97 36.23"><defs><style>.cls-1{fill:#ffc89f;}.cls-2{fill:#464649;}.cls-3{fill:#f7b081;}.cls-4{fill:#8cc7ec;}.cls-5{fill:#66baea;}</style></defs><title>born</title><g id="Head"><path class="cls-1" d="M49.67,34a8.35,8.35,0,0,0-8.34,8.34V59.94c0,.21,16.67.21,16.67,0V42.38A8.35,8.35,0,0,0,49.67,34Z" transform="translate(-39.68 -31.61)"/><g id="Eyes"><ellipse class="cs-2" cx="7" cy="10" rx="1" ry="1"/><ellipse class="cs-2" cx="12" cy="10" rx="1" ry="1"/></g><path class="cls-3" d="M49.67,34a8.8,8.8,0,0,0-1.16.08,8.35,8.35,0,0,1,7.17,8.26l0,19A14.08,14.08,0,0,0,58,59.94V42.38A8.35,8.35,0,0,0,49.67,34Z" transform="translate(-39.68 -31.61)"/><path class="cls-3" d="M55.65,43.57h0l-9,4.22,2.73,1.28a.59.59,0,0,0,.23,0,.59.59,0,0,0,.22,0l7.81-3.64-2.05.95Z" transform="translate(-39.68 -31.61)"/><path class="cls-2" d="M48.81,35.15h0a3.69,3.69,0,0,1-3.36-2.26.52.52,0,0,1,.33-.67.53.53,0,0,1,.67.32,2.52,2.52,0,0,0,1.66,1.4,3.49,3.49,0,0,1,.31-2,.53.53,0,0,1,.71-.25.54.54,0,0,1,.25.71,2.35,2.35,0,0,0-.05,2,.55.55,0,0,1,0,.54A.53.53,0,0,1,48.81,35.15Z" transform="translate(-39.68 -31.61)"/></g><path class="cls-4" d="M58.92,44.5a1.55,1.55,0,0,0-1.53-.1L49.67,48,42,44.4a1.55,1.55,0,0,0-1.53.1,1.58,1.58,0,0,0-.74,1.34v12a10,10,0,1,0,20,0v-12A1.57,1.57,0,0,0,58.92,44.5Z" transform="translate(-39.68 -31.61)"/><path class="cls-5" d="M58.92,44.5a1.55,1.55,0,0,0-1.53-.1l-.71.33a1.57,1.57,0,0,1,.45,1.11v12a10,10,0,0,1-8.72,9.91,10.39,10.39,0,0,0,1.26.08,10,10,0,0,0,10-10v-12A1.57,1.57,0,0,0,58.92,44.5Z" transform="translate(-39.68 -31.61)"/><polygon class="cls-5" points="0 19.46 0 21.13 9.99 16.39 8.29 15.6 0 19.46"/></svg>