<svg xmlns="http://www.w3.org/2000/svg" viewBox="0 0 16.19 18.51"><defs><style>.a{fill:#e2574c;}.b{fill:#b53629;}.c{fill:#fff;}</style></defs><title>Untitled-6</title><path class="a" d="M393,391.12h9.82L408,396.3v12.16a1.16,1.16,0,0,1-1.15,1.16H393a1.16,1.16,0,0,1-1.16-1.16V392.27a1.15,1.15,0,0,1,1.16-1.15Zm0,0" transform="translate(-391.79 -391.12)"/><path class="b" d="M408,396.32h-4a1.16,1.16,0,0,1-1.15-1.16v-4Zm0,0" transform="translate(-391.79 -391.12)"/><path class="c" d="M404.52,399.85a.41.41,0,0,0,.4-.45.42.42,0,0,0-.4-.46H403a.48.48,0,0,0-.46.52v3.71c0,.33.19.51.44.51a.45.45,0,0,0,.45-.51v-1h.91a.43.43,0,0,0,.43-.46.42.42,0,0,0-.43-.45h-.91v-1.39Zm-5.1-.91h-1.11a.49.49,0,0,0-.51.51v3.72a.48.48,0,0,0,.52.5h1.16a2.15,2.15,0,0,0,2.28-2.3,2.2,2.2,0,0,0-2.34-2.43Zm.05,3.81h-.67v-2.89h.6c.92,0,1.32.61,1.32,1.47s-.39,1.42-1.25,1.42Zm-4.05-3.81h-1.09a.47.47,0,0,0-.49.52v3.71a.47.47,0,1,0,.93,0v-1.09h.69a1.5,1.5,0,0,0,1.54-1.56,1.51,1.51,0,0,0-1.58-1.58Zm0,2.27h-.63v-1.4h.63a.7.7,0,0,1,0,1.4Zm0,0" transform="translate(-391.79 -391.12)"/></svg>