<svg xmlns="http://www.w3.org/2000/svg" viewBox="0 0 30.25 17.97"><defs><style>.a{fill:#2b414d;}.b{fill:#475f6c;}.c{fill:#455e6b;}.d{fill:#4b6370;}</style></defs><title>study</title><path class="a" d="M388.13,405.74h-.71a11.2,11.2,0,0,1-.47,3.79l2.6.47A7.41,7.41,0,0,1,388.13,405.74Zm0-5.91h-.71v5.44h.71Zm0,5.91h-.71a11.2,11.2,0,0,1-.47,3.79l2.6.47A7.41,7.41,0,0,1,388.13,405.74Zm0-5.91h-.71v5.44h.71Z" transform="translate(-385.07 -392.03)"/><path class="b" d="M387.78,404.56a1.3,1.3,0,1,1-1.31,1.3A1.32,1.32,0,0,1,387.78,404.56Z" transform="translate(-385.07 -392.03)"/><path class="a" d="M385.39,398.84l14-6.65a2,2,0,0,1,1.56,0l14,6.65c.43.21.43.59,0,.8l-14,6.65a2,2,0,0,1-1.56,0l-14-6.65C385,399.43,385,399.05,385.39,398.84Zm14.8,3.54c4.45,0,8.05,1.61,8.05,3.58s-3.6,3.57-8.05,3.57-8-1.61-8-3.57S395.75,402.38,400.19,402.38Z" transform="translate(-385.07 -392.03)"/><path class="c" d="M407.53,400.51c0-1.67-3.27-3.05-7.31-3.05s-7.29,1.35-7.31,3c0,0-.78,5.49-.76,5.49,0-1.61,3.38-3.57,8.07-3.57,4.35,0,7.59,2,8,3.55Z" transform="translate(-385.07 -392.03)"/><path class="d" d="M400.67,397.46v5c4.11.14,7.14,2.08,7.57,3.55l-.71-5.47C407.53,398.88,404.5,397.58,400.67,397.46Z" transform="translate(-385.07 -392.03)"/></svg>