<?xml version="1.0" encoding="utf-8"?>
<!-- Generator: Adobe Illustrator 22.0.1, SVG Export Plug-In . SVG Version: 6.00 Build 0)  -->
<svg version="1.1" id="Layer_1" xmlns="http://www.w3.org/2000/svg" xmlns:xlink="http://www.w3.org/1999/xlink" x="0px" y="0px"
	 viewBox="0 0 74.6 74.6" style="enable-background:new 0 0 74.6 74.6;" xml:space="preserve">
<style type="text/css">
	.st0{fill:#EAEAEA;}
	.st1{fill:#BFBFBF;stroke:#565656;stroke-width:2;stroke-miterlimit:10;}
	.st2{fill:#BFBFBF;}
	.st3{fill:#565656;}
	.st4{fill:#AAAAAA;}
</style>
<title>unknow_user</title>
<g id="Логотип">
	<path id="Фон" class="st0" d="M34.3,0h6c18.9,0,34.3,15.4,34.3,34.3v5.5c0,19.2-15.6,34.8-34.8,34.8h-5.1
		C15.6,74.6,0,59.1,0,39.9v-5.5C0,15.4,15.4,0,34.3,0z"/>
	<g id="Голова">
		<path id="Ухо" class="st1" d="M13.4,52.7L13.4,52.7c0,1.7-1.4,3.1-3.1,3.1h0c-1.7,0-3.1-1.4-3.1-3.1v0c0-1.7,1.4-3.1,3.1-3.1h0
			C12,49.7,13.4,51,13.4,52.7z"/>
		<g id="Лицо">
			<path class="st2" d="M21.9,61.8c-4.7,0-8.5-3.7-8.7-8.3V33.2h48.4v20.3c0,0,0,0,0,0c0,4.6-3.8,8.3-8.4,8.3H21.9z"/>
			<path class="st3" d="M14.2,34.2h46.4v19.3c0,0,0,0,0,0c0,4-3.3,7.3-7.4,7.3H21.9c-4.1,0-7.5-3.2-7.7-7.3V34.2 M12.2,53.5
				c0.2,5.2,4.5,9.3,9.7,9.3h31.4c5.1,0,9.3-4.2,9.3-9.3V32.2H12.2V53.5z"/>
		</g>
		<g id="Рот">
			<g id="Рот_тень">
				<rect x="32.5" y="56.2" class="st4" width="12" height="2.6"/>
				<polygon class="st4" points="32.5,56.2 32.5,58.8 44.4,58.8 44.4,56.2 32.5,56.2 				"/>
			</g>
			<g id="Рот-2">
				<rect x="32.5" y="54.4" class="st3" width="12" height="2.6"/>
				<polygon class="st3" points="32.5,54.4 32.5,57.1 44.4,57.1 44.4,54.4 32.5,54.4 				"/>
			</g>
		</g>
		<g id="Глаза">
			<g id="Глаза_тень">
				<g id="Глаз_правый_тень">
					<circle class="st4" cx="30.6" cy="48" r="0.4"/>
					<path class="st4" d="M30.6,43.6c-2.4,0-4.4,2-4.4,4.4s2,4.4,4.4,4.4s4.4-2,4.4-4.4C34.9,45.5,33,43.6,30.6,43.6
						C30.6,43.6,30.6,43.6,30.6,43.6z"/>
				</g>
				<g id="Глаз_левый_тень">
					<circle class="st4" cx="50.1" cy="47.8" r="0.4"/>
					<path class="st4" d="M50.1,43.4c-2.4,0-4.4,2-4.4,4.4s2,4.4,4.4,4.4s4.4-2,4.4-4.4C54.5,45.4,52.5,43.4,50.1,43.4
						C50.1,43.4,50.1,43.4,50.1,43.4z"/>
				</g>
			</g>
			<g id="Глаз_правый">
				<circle class="st3" cx="30.5" cy="45.6" r="0.4"/>
				<path class="st3" d="M30.5,40.7c-2.7,0-4.9,2.2-4.9,4.9s2.2,4.9,4.9,4.9s4.9-2.2,4.9-4.9C35.4,42.9,33.2,40.7,30.5,40.7
					C30.5,40.7,30.5,40.7,30.5,40.7z"/>
			</g>
			<g id="Глаз_левый">
				<circle class="st3" cx="50.5" cy="45.4" r="0.4"/>
				<path class="st3" d="M45.6,45.4c0,2.7,2.2,4.9,4.9,4.9s4.9-2.2,4.9-4.9c0-2.7-2.2-4.9-4.9-4.9C47.8,40.5,45.6,42.7,45.6,45.4z"
					/>
			</g>
		</g>
		<g id="Волосы">
			<rect id="Волосы_тень" x="14.2" y="34.5" class="st4" width="46.3" height="4.1"/>
			<path id="Волосы-2" class="st3" d="M14.2,35.7C14.2,35.7,14.2,35.7,14.2,35.7c0-0.6,0.5-1.1,1.1-1.1l46.6-0.1
				c0.6,0,1.1-0.2,1.6-0.5c0.9-0.7,2.3-2.3,2.9-5.7c1-5.1,0-13.6-9.5-19.3c-0.1,0-0.1-0.1-0.2-0.1c-0.2,0-0.4,0.2-0.4,0.4
				c0.2,1,0,2.1-0.3,3.1c-1.1,2.2-5.6,3.5-7.8,3.7c-8.6,0.9-24.7-0.7-30.9-0.3C7.3,16.4,6.5,30.6,6.5,31.7
				c-0.3,21.5,7.7,20.5,7.7,20.5L14.2,35.7z"/>
		</g>
	</g>
</g>
</svg>
