<svg xmlns="http://www.w3.org/2000/svg" viewBox="0 0 17.2 17.2"><defs><style>.a{fill:#d89748;}.b{fill:#b58039;}.c{fill:#85b4c1;}.d{fill:#f7f8f8;}.e{fill:#3db39e;}</style></defs><title>zoom</title><path class="a" d="M408.22,408.12a1.51,1.51,0,0,1-2.15,0L400,402a1.52,1.52,0,0,1,2.15-2.15l6.1,6.1A1.53,1.53,0,0,1,408.22,408.12Z" transform="translate(-391.46 -391.36)"/><polygon class="b" points="12.37 10.22 9.14 10.22 9.14 11.3 13.44 15.59 13.44 15.59 13.44 11.29 12.37 10.22"/><path class="c" d="M398.72,391.36a7.26,7.26,0,1,1-7.26,7.26A7.26,7.26,0,0,1,398.72,391.36Z" transform="translate(-391.46 -391.36)"/><path class="d" d="M398.72,393a5.65,5.65,0,1,1-5.64,5.64A5.64,5.64,0,0,1,398.72,393Z" transform="translate(-391.46 -391.36)"/><path class="e" d="M396.57,397.82h1.35v-1.35a.81.81,0,1,1,1.61,0v1.35h1.34a.81.81,0,1,1,0,1.61h-1.34v1.34a.81.81,0,1,1-1.61,0v-1.34h-1.35a.81.81,0,0,1,0-1.61Z" transform="translate(-391.46 -391.36)"/></svg>