<svg xmlns="http://www.w3.org/2000/svg" viewBox="0 0 74.63 74.63"><defs><style>.a{fill:#e7e4fd;}.b,.c{fill:#e18c44;}.b{stroke:#201600;stroke-miterlimit:10;stroke-width:2px;}.d{fill:#201600;}.e{fill:#d76446;}</style></defs><title>logo_ivanopol_portfolio</title><path class="a" d="M34.33,0h6A34.33,34.33,0,0,1,74.63,34.33v5.53A34.77,34.77,0,0,1,39.86,74.63H34.77A34.77,34.77,0,0,1,0,39.86V34.33A34.33,34.33,0,0,1,34.33,0Z"/><rect class="b" x="61.71" y="49.65" width="6.12" height="6.12" rx="3.06" ry="3.06"/><path class="c" d="M184.37,224.58a8.33,8.33,0,0,1-8.33-8.32V196h48.34v20.23a8.62,8.62,0,0,1-8.68,8.32Z" transform="translate(-162.44 -162.8)"/><path class="d" d="M223.38,197v19.23a7.61,7.61,0,0,1-7.68,7.32H184.37a7.33,7.33,0,0,1-7.33-7.32V197h46.34m2-2H175v21.23a9.33,9.33,0,0,0,9.33,9.32H215.7a9.63,9.63,0,0,0,9.68-9.32V195Z" transform="translate(-162.44 -162.8)"/><rect class="e" x="30.68" y="56.2" width="11.97" height="2.63"/><polygon class="e" points="42.65 56.2 30.68 56.2 30.68 58.82 42.65 58.82 42.65 56.2 42.65 56.2"/><rect class="d" x="30.68" y="54.44" width="11.97" height="2.63"/><polygon class="d" points="42.65 54.44 30.68 54.44 30.68 57.07 42.65 57.07 42.65 54.44 42.65 54.44"/><circle class="e" cx="44.52" cy="47.96" r="0.38"/><path class="e" d="M207,206.38a4.38,4.38,0,1,0,4.38,4.38,4.38,4.38,0,0,0-4.38-4.38Z" transform="translate(-162.44 -162.8)"/><circle class="e" cx="25.04" cy="47.78" r="0.38"/><path class="e" d="M187.48,206.21a4.38,4.38,0,1,0,4.38,4.38,4.38,4.38,0,0,0-4.38-4.38Z" transform="translate(-162.44 -162.8)"/><circle class="d" cx="44.52" cy="45.51" r="0.38"/><path class="d" d="M207,203.93a4.38,4.38,0,1,0,4.38,4.38,4.38,4.38,0,0,0-4.38-4.38Z" transform="translate(-162.44 -162.8)"/><circle class="d" cx="25.04" cy="45.33" r="0.38"/><path class="d" d="M187.48,203.75a4.38,4.38,0,1,0,4.38,4.38,4.39,4.39,0,0,0-4.38-4.38Z" transform="translate(-162.44 -162.8)"/><rect class="e" x="14.33" y="34.5" width="47.22" height="4.1"/><path class="d" d="M223.63,215s7.71,1.1,7.41-20.42c0-1.13-.77-15.31-10.71-15.89-6.18-.37-22.27,1.22-30.91.29-2.15-.23-6.74-1.53-7.8-3.74a6.14,6.14,0,0,1-.32-3.06.4.4,0,0,0-.6-.34c-9.47,5.68-10.41,14.19-9.45,19.28.63,3.35,2,5,2.89,5.68a2.49,2.49,0,0,0,1.58.55l46.82,0a1.09,1.09,0,0,1,1.1,1.09Z" transform="translate(-162.44 -162.8)"/></svg>