<svg xmlns="http://www.w3.org/2000/svg" xmlns:xlink="http://www.w3.org/1999/xlink" viewBox="0 0 569.62 439.48"><defs><style>.a,.r,.s,.t{isolation:isolate;}.b{fill:#e7e4fd;}.c{fill:#bab7e2;}.d{fill:#cacafc;}.e{fill:#49439e;}.f{fill:#5752b7;}.g,.p{fill:#c1c1f9;}.h{opacity:0.35;}.i,.s{fill:#fff;}.j{opacity:0.25;}.j,.p{mix-blend-mode:multiply;}.k{fill:#aeacf9;}.l{fill:#e6a42a;}.m{fill:#ededed;}.n{fill:#7979e0;}.o{fill:#cdcdfc;}.p{opacity:0.55;}.q{fill:#a2a1f3;}.r,.s{opacity:0.2;}.t{fill:#010101;opacity:0.1;}.u{fill:url(#a);}.v{fill:url(#b);}.w{fill:#b0add8;}</style><linearGradient id="a" x1="1045.38" y1="202.9" x2="1055.58" y2="192.7" gradientTransform="translate(-360.06 -433.37) rotate(29.6)" gradientUnits="userSpaceOnUse"><stop offset="0" stop-color="#010101" stop-opacity="0.1"/><stop offset="1" stop-color="#010101" stop-opacity="0"/></linearGradient><linearGradient id="b" x1="1034.84" y1="612.89" x2="1060.92" y2="600.73" gradientTransform="matrix(0.87, 0.49, 0.49, -0.87, -756.24, 263.95)" gradientUnits="userSpaceOnUse"><stop offset="0" stop-color="#fff" stop-opacity="0.2"/><stop offset="1" stop-color="#fff" stop-opacity="0"/></linearGradient></defs><title>picture</title><g class="a"><path class="b" d="M679.11,445.46C669.25,418,653.73,409.62,639,392c-18-21.53-30.19-37.17-25.51-64.86,7.65-45.24,10.92-158.08-108.85-143.33-42.93,5.29-76.85,38.19-101.53,71-21,27.94-58.78,30.4-89.19,36.92-37.36,8-75.41,20.09-110,37.81-71.18,36.48-92.44,88.94-89.54,156.05.88,20.27,3.75,52.21,38,89.58,46.22,50.44,113.4,57.19,194.25,34,18.51-5.31,36-13.62,54.2-19.88a255.9,255.9,0,0,1,58.51-12.71c46.43-4.49,94.57,3.64,139.11-10.23a146.73,146.73,0,0,0,62.22-38.59C681.94,505.54,689.51,474.47,679.11,445.46Z" transform="translate(-114.11 -182.49)"/><path class="c" d="M502.87,295.23a3.92,3.92,0,1,0,3.91,3.92A3.92,3.92,0,0,0,502.87,295.23Zm28,17.8a3.91,3.91,0,1,0,5.35,1.43A3.91,3.91,0,0,0,530.82,313Zm-19.45-13.88a11.41,11.41,0,0,1,4.87-9.36L513.37,285a17.08,17.08,0,0,0-7,9.88,5.5,5.5,0,0,1,0,8.53,17.07,17.07,0,0,0,7,9.89l2.87-4.8A11.39,11.39,0,0,1,511.37,299.15Zm11.44-11.44a11.44,11.44,0,0,1,11.39,10.42l5.58-.08a17,17,0,0,0-5.06-11,5.5,5.5,0,0,1-7.37-4.26,17,17,0,0,0-12.08,1.14l2.72,4.88A11.3,11.3,0,0,1,522.81,287.71Zm0,22.87a11.44,11.44,0,0,1-4.82-1.06l-2.72,4.87a17.09,17.09,0,0,0,12.08,1.15,5.5,5.5,0,0,1,7.37-4.27,16.93,16.93,0,0,0,5.06-11l-5.58-.08A11.44,11.44,0,0,1,522.81,310.58Zm8-25.31a3.91,3.91,0,1,0-1.43-5.35A3.92,3.92,0,0,0,530.82,285.27Z" transform="translate(-114.11 -182.49)"/><path class="d" d="M287.55,549c0,6.63,53.85,12,120.27,12s120.26-5.38,120.26-12-53.84-12-120.26-12S287.55,542.35,287.55,549Z" transform="translate(-114.11 -182.49)"/><rect class="e" x="249.39" y="331.92" width="83.26" height="22.4"/><rect class="f" x="147.14" y="131.59" width="288.62" height="207.64" rx="9.39" ry="9.39"/><rect class="g" x="155.2" y="139.16" width="271.62" height="180.15" rx="5.77" ry="5.77"/><path class="f" d="M220.92,352.37H361.11a7.32,7.32,0,0,1,7.32,7.32v6.8a0,0,0,0,1,0,0H213.6a0,0,0,0,1,0,0v-6.8A7.32,7.32,0,0,1,220.92,352.37Z"/><g class="h"><rect class="i" x="220.07" y="151.6" width="190.05" height="127.75" rx="8.33" ry="8.33"/></g><g class="j"><rect class="k" x="347.21" y="243.45" width="5.69" height="5.69"/><rect class="l" x="347.21" y="253.41" width="5.69" height="5.69"/><rect class="m" x="354.46" y="255.86" width="18.02" height="3.23"/><rect class="m" x="354.46" y="245.9" width="18.02" height="3.23"/><rect class="k" x="377.32" y="243.45" width="5.69" height="5.69"/><rect class="l" x="377.32" y="253.41" width="5.69" height="5.69"/><rect class="m" x="384.57" y="255.86" width="11.86" height="3.23"/><rect class="m" x="384.57" y="245.9" width="11.86" height="3.23"/><rect class="m" x="314.84" y="189.13" width="81.59" height="1.48"/><rect class="m" x="232.66" y="170.92" width="163.76" height="3.4"/><rect class="m" x="314.59" y="193.74" width="81.83" height="1.48"/><rect class="m" x="314.59" y="184.51" width="81.83" height="1.48"/><rect class="m" x="314.59" y="198.35" width="81.83" height="1.48"/><rect class="m" x="314.59" y="202.97" width="81.83" height="1.48"/><rect class="m" x="314.59" y="207.58" width="81.83" height="1.48"/><rect class="m" x="314.59" y="212.19" width="81.83" height="1.48"/><rect class="m" x="314.59" y="216.81" width="81.83" height="1.48"/><rect class="m" x="314.59" y="221.42" width="81.83" height="1.48"/><rect class="m" x="324.61" y="226.03" width="71.82" height="1.48"/><path class="n" d="M515.91,334.09H342.51a8.33,8.33,0,0,0-8.33,8.33v7.29H524.24v-7.29A8.33,8.33,0,0,0,515.91,334.09Z" transform="translate(-114.11 -182.49)"/><path class="o" d="M499.79,342.19a2.4,2.4,0,1,1-2.4-2.4A2.4,2.4,0,0,1,499.79,342.19Z" transform="translate(-114.11 -182.49)"/><circle class="o" cx="393.06" cy="159.7" r="2.4"/><circle class="o" cx="402.85" cy="159.7" r="2.4"/></g><rect class="p" x="169.58" y="179.86" width="190.05" height="127.75" rx="8.33" ry="8.33"/><rect class="i" x="173.44" y="174.88" width="190.05" height="127.75" rx="8.33" ry="8.33"/><path class="q" d="M469.28,357.38H295.88a8.32,8.32,0,0,0-8.33,8.32V373H477.61V365.7A8.32,8.32,0,0,0,469.28,357.38Z" transform="translate(-114.11 -182.49)"/><path class="o" d="M453.16,365.47a2.4,2.4,0,1,1-2.4-2.4A2.39,2.39,0,0,1,453.16,365.47Z" transform="translate(-114.11 -182.49)"/><path class="o" d="M463,365.47a2.4,2.4,0,1,1-2.4-2.4A2.4,2.4,0,0,1,463,365.47Z" transform="translate(-114.11 -182.49)"/><path class="o" d="M472.74,365.47a2.41,2.41,0,1,1-2.41-2.4A2.4,2.4,0,0,1,472.74,365.47Z" transform="translate(-114.11 -182.49)"/><path class="r" d="M224.5,351.49a3.15,3.15,0,0,0-1.34,2l-3.36,17.08a3.17,3.17,0,0,0,2.48,3.68l17.08,3.36a3.17,3.17,0,0,0,3.69-2.47l3.36-17.08a3.18,3.18,0,0,0-2.48-3.69L226.85,351A3.07,3.07,0,0,0,224.5,351.49Z" transform="translate(-114.11 -182.49)"/><path class="c" d="M224.22,351.06a3.08,3.08,0,0,0-1.34,2l-3.36,17.08a3.18,3.18,0,0,0,2.47,3.69l17.09,3.36a3.18,3.18,0,0,0,3.69-2.48l3.35-17.08a3.17,3.17,0,0,0-2.47-3.69l-17.08-3.36A3.16,3.16,0,0,0,224.22,351.06Z" transform="translate(-114.11 -182.49)"/><path class="s" d="M224.22,351.06a3.08,3.08,0,0,0-1.34,2l-3.36,17.08a3.14,3.14,0,0,0,.64,2.56,3.13,3.13,0,0,1-.36-2.13l3.36-17.08a3.15,3.15,0,0,1,1.34-2,3.07,3.07,0,0,1,2.35-.49l17.08,3.36a3.11,3.11,0,0,1,1.84,1.13,3.13,3.13,0,0,0-2.12-1.56l-17.08-3.36A3.16,3.16,0,0,0,224.22,351.06Z" transform="translate(-114.11 -182.49)"/><path class="r" d="M217,361.5a1.54,1.54,0,1,0,1.72,2.56l.43-.28,9.75,14.52a3.08,3.08,0,0,0,5.59-1.09l5.76-27.62a1.54,1.54,0,0,0-1.89-2.43l-6,4A1.54,1.54,0,0,0,233,354l-3.09,14.79-5.66-8.43.42-.29a1.54,1.54,0,1,0-1.72-2.56Z" transform="translate(-114.11 -182.49)"/><path class="i" d="M216.68,361.07a1.55,1.55,0,0,0,1.73,2.57l.42-.29,9.75,14.53a3.1,3.1,0,0,0,4.29.84,3.06,3.06,0,0,0,1.3-1.93l5.76-27.63a1.54,1.54,0,0,0-1.88-2.43l-6,4a1.53,1.53,0,0,0,.64,2.8l-3.09,14.8L224,359.91l.43-.29a1.54,1.54,0,1,0-1.72-2.56Z" transform="translate(-114.11 -182.49)"/><path class="s" d="M216.68,361.07a1.56,1.56,0,0,0-.42,2.15c.05.07.11.13.17.2a1.53,1.53,0,0,1,.54-1.92l6-4a1.54,1.54,0,0,1,2,.22,1,1,0,0,0-.12-.23,1.54,1.54,0,0,0-2.14-.42Zm15.39-10.32a1.54,1.54,0,0,0-.43,2.14c.05.07.11.13.16.19a1.53,1.53,0,0,1,.55-1.9l6-4a1.54,1.54,0,0,1,2,.23c0-.08-.08-.16-.13-.24a1.54,1.54,0,0,0-2.14-.42Zm.57,3.13-3,14.47.29.42L233,354A1.48,1.48,0,0,1,232.64,353.88Z" transform="translate(-114.11 -182.49)"/><path class="c" d="M360.19,304.07a1.57,1.57,0,0,0-.1-.44,2.63,2.63,0,0,0-.33-.29c-.31-.23-.61-.42-1-.65l-3.54-2.26,1.72-2.8.91-1.59a1.55,1.55,0,0,0,.24-1l-.05-.2a.73.73,0,0,0-.81-.63l.11,0-.34.07c-.29.07-.94,1-1.08,1.33a18,18,0,0,1-1.7,2.64l-1.33-5.79c-.12-.54-.47-.71-1-.59l-.14,0c-.54.13-.92.47-.8,1l2.9,12.61c.12.53.6.63,1.14.5l.14,0c.54-.12.78-.43.66-.92l-.51-2.24,1.79,1.08c.53.34,1,.53,1.52.83a1.52,1.52,0,0,0,1,.23l.14,0c.49-.11.58-.39.59-.8l-.09.07ZM377,289.76l-.2.05A5,5,0,0,0,374,291.4a5.28,5.28,0,0,0-1.29,4.86l1.09,4.78c.13.53.35.63.89.51l.15,0c.53-.13,1-.44.91-.93l-1-4.48a3.62,3.62,0,0,1,.32-2.84,3.26,3.26,0,0,1,1.9-1.57c.63-.14,1.33-.45,1.15-1.23A.93.93,0,0,0,377,289.76ZM370,293.92a5.25,5.25,0,0,0-2.65-1.49,5.4,5.4,0,0,0-5.15,1.23l-.21.2a5.17,5.17,0,0,0-1.36,1.9,5.44,5.44,0,0,0,1.06,6l.14.17a5.07,5.07,0,0,0,2.39,1.5,5.48,5.48,0,0,0,5.43-1.14l.13-.13a.92.92,0,0,0,0-1.34,1.06,1.06,0,0,0-.59-.33l-.1,0a5,5,0,0,0-1.49.86,4.71,4.71,0,0,1-2.17.39l3-4.06c.43-.61.89-1.28,1.37-1.85s.77-1.15.22-1.74Zm-3,2.52L363.72,301a3.6,3.6,0,0,1-.45-.41,3.36,3.36,0,0,1-.86-1.54,3.77,3.77,0,0,1,4.06-4.83,3.28,3.28,0,0,1,1.75.67C367.83,295.39,367.39,295.9,367.05,296.44ZM326,297.87l-.15,0c-.53.12-.78.38-.66.92l.91,3.94a5.15,5.15,0,0,0-3.79-.41l-.39.09a5.35,5.35,0,0,0-4.16,6.44l.09.39a4.91,4.91,0,0,0,1.31,2.36,5.22,5.22,0,0,0,5.23,1.57l.39-.09a5.63,5.63,0,0,0,2.55-1.2,5.2,5.2,0,0,0,1.73-5.16l-1.9-8.28C327,297.85,326.5,297.75,326,297.87Zm.93,11a3.7,3.7,0,0,1-2.78,2.63,3.28,3.28,0,0,1-1.76-.06,3.64,3.64,0,0,1-2.74-2.8,3.29,3.29,0,0,1,0-1.59,3.63,3.63,0,0,1,2.86-3,3.44,3.44,0,0,1,2.2.21,3.62,3.62,0,0,1,2.29,2.6A3.31,3.31,0,0,1,326.89,308.84Zm7.45-9.3-.29.07a5.05,5.05,0,0,0-2.49,1.23,5.18,5.18,0,0,0-1.67,5.21l.08.39a5,5,0,0,0,1.32,2.36,5.22,5.22,0,0,0,5.27,1.56l.39-.09a5.78,5.78,0,0,0,2.55-1.2,5.2,5.2,0,0,0,1.73-5.17l-.09-.39a5,5,0,0,0-1.21-2.18A5.47,5.47,0,0,0,334.34,299.54Zm4.77,6.49a3.72,3.72,0,0,1-4.69,2.56,3.61,3.61,0,0,1-2.63-2.72,3.29,3.29,0,0,1,0-1.59,3.6,3.6,0,0,1,2.85-3,3.5,3.5,0,0,1,2.08.13,3.69,3.69,0,0,1,2.41,2.68A3.09,3.09,0,0,1,339.11,306Zm10.43-9.26,0,.06a5,5,0,0,0-2.89-.11l-.39.09a5,5,0,0,0-2.48,1.24,5.15,5.15,0,0,0-1.69,5.15l.09.39a6.89,6.89,0,0,0,.52,1.37,5.37,5.37,0,0,0,6.61,2.69c.77-.23,2.81-.95,2.54-2.12l-.05-.2a1,1,0,0,0-.94-.75l-.07-.09-.34.08-.07.17a5.28,5.28,0,0,1-1.52,1,3.74,3.74,0,0,1-1.82.11,3.68,3.68,0,0,1-3-2.85,3.25,3.25,0,0,1,0-1.58,3.62,3.62,0,0,1,2.85-3,3.43,3.43,0,0,1,1.19,0,5.53,5.53,0,0,0,1.28.22l.1,0,0-.11a1,1,0,0,0,.58-1.06l0-.19a1,1,0,0,0-.31-.45l-.12-.07Zm-34-8.19.08.09c5.34,5.64,12.68,6.83,20,5.14,14.22-3.26,24.49-12.34,26.77-27,3.65-.63,7.11-2.55,8.07-6.41l.23-1-1-.29a9.7,9.7,0,0,0-7.36,1,10.13,10.13,0,0,0-5.34-5.39l-.92-.45-.45.92a8.62,8.62,0,0,0-.14,6.34,8.33,8.33,0,0,0,2.39,3.71,15.5,15.5,0,0,1-1.83,1.65,13.53,13.53,0,0,1-4.11,2l-3.26.75-1.58-6.86-6.33,1.45L338,252.05l-7.3,1.68,1.34,5.84-12.18,2.8,1.46,6.33L315,270.15l1.56,6.82-5.45,1.25.07.75a18.37,18.37,0,0,0,3.52,8.67Zm25.61-22.89,5.36-1.23,1.22,5.36-5.35,1.23Zm-9.24-11.21,5.36-1.23,1.23,5.36-5.36,1.23Zm1.46,6.33,5.35-1.23,1.23,5.36-5.35,1.23Zm1.45,6.33,5.36-1.23,1.22,5.36L336,272.5ZM327,262.26l5.35-1.23,1.23,5.36-5.35,1.23Zm1.45,6.33,5.36-1.23,1.22,5.36L329.7,274Zm4,15.07a1.55,1.55,0,1,1-1.86-1.16A1.6,1.6,0,0,1,332.49,283.66ZM321.17,263.6l4.87-1.11,1.23,5.35L322.4,269Zm1.46,6.33,4.86-1.11,1.23,5.35-4.87,1.12Zm-6.34,1.46,5.36-1.23,1.23,5.35-5.36,1.23Zm5.42,18.23c.78-.18,1.56-.35,2.28-.57a23.18,23.18,0,0,0,4.75-1.86,13.6,13.6,0,0,0,8.36,5.16l-1.7.44c-7.7,1.71-12.43.08-16.62-2.55C319.81,290.06,320.78,289.84,321.71,289.62Zm9.52-4.54a1.1,1.1,0,0,0,.82-1.32.78.78,0,0,0-.19-.36c-.06.17-.13.29-.33.33a.45.45,0,0,1-.54-.34.61.61,0,0,1,.11-.43.61.61,0,0,0-.37,0,1.11,1.11,0,0,0-.82,1.32A1.14,1.14,0,0,0,331.23,285.08Z" transform="translate(-114.11 -182.49)"/><path class="c" d="M468.44,260.24h0l-5.15-18.71a2,2,0,0,0-2.41-1.37l-18.7,5.16a1.91,1.91,0,0,0-1.18.92,1.94,1.94,0,0,0-.19,1.49l5.15,18.7a1.9,1.9,0,0,0,.92,1.19,1.93,1.93,0,0,0,1.49.18l18.7-5.15a2,2,0,0,0,1.37-2.41Z" transform="translate(-114.11 -182.49)"/><path class="t" d="M467.44,262.31l-18.9,5.21a1.92,1.92,0,0,1-1.5-.19,2,2,0,0,1-.93-1.19l-5.2-18.9a1.91,1.91,0,0,1-.06-.67,1.91,1.91,0,0,0,0,1.16l5.15,18.7a1.9,1.9,0,0,0,.92,1.19,1.93,1.93,0,0,0,1.49.18l18.7-5.15a2,2,0,0,0,1-.63A2,2,0,0,1,467.44,262.31Z" transform="translate(-114.11 -182.49)"/><path class="i" d="M461.59,254.94a2.62,2.62,0,0,0-1.35-.33l-1.11-4a2.59,2.59,0,0,0,1-1,2.62,2.62,0,0,0-1-3.56,2.55,2.55,0,0,0-1.33-.33l-1.21-4.37-1.26.35,1.21,4.37a2.48,2.48,0,0,0-1,1,2.61,2.61,0,0,0,.45,3.16l-4,7a2.6,2.6,0,0,0-2,4.78,2.61,2.61,0,0,0,3.11-4.14l4-7a2.36,2.36,0,0,0,.7.09L459,255a2.58,2.58,0,0,0-1,1,2.61,2.61,0,1,0,3.56-1Z" transform="translate(-114.11 -182.49)"/><path class="s" d="M442,245.6l18.7-5.16a2,2,0,0,1,2.41,1.37l5.15,18.71h0a2,2,0,0,1-.12,1.34,1.1,1.1,0,0,0,.09-.14,1.92,1.92,0,0,0,.19-1.48h0l-5.15-18.71a2,2,0,0,0-2.41-1.37l-18.7,5.16a1.91,1.91,0,0,0-1.18.92,1,1,0,0,0-.07.15A2,2,0,0,1,442,245.6Z" transform="translate(-114.11 -182.49)"/><path class="u" d="M462.86,256.8a2.53,2.53,0,0,1-.29,1.71,2.61,2.61,0,0,1-4.54-2.58,2.58,2.58,0,0,1,1-1l-1.11-4.06a2.36,2.36,0,0,1-.7-.09l-4,7a2.61,2.61,0,0,1-3.11,4.14,2.59,2.59,0,0,1-1.17-1.44l1.83,6.64,13.9-3.83Zm-3.73-6.22,1.11,4a2.55,2.55,0,0,1,2.48,1.65l-2.3-8.33h0a2.56,2.56,0,0,1-1.29,2.65Z" transform="translate(-114.11 -182.49)"/><path class="v" d="M468.44,260.24h0l-5.15-18.71a2,2,0,0,0-2.41-1.37l-18.7,5.16a1.91,1.91,0,0,0-1.18.92,1.94,1.94,0,0,0-.19,1.49l5.15,18.7a1.9,1.9,0,0,0,.92,1.19,1.93,1.93,0,0,0,1.49.18l18.7-5.15a2,2,0,0,0,1.37-2.41Z" transform="translate(-114.11 -182.49)"/><path class="c" d="M548.35,222.78a5.55,5.55,0,0,1-6.37,4.58l-24.13-3.93a5.56,5.56,0,0,1-4.58-6.38l3.93-24.12a5.56,5.56,0,0,1,6.38-4.59l24.12,3.94a5.55,5.55,0,0,1,4.59,6.37Z" transform="translate(-114.11 -182.49)"/><path class="w" d="M548.35,222.78l1.86-11.39-9.13-12.69-3.73,2.69-.74-1-10.29,7.4,3,4.16-1.59,1.15-2.91-4-.19-.15-.22,0-.32.22,2.07,2.88-.34.24,2.76,3.83-1.17.85,6.62,9.2,8,1.3A5.55,5.55,0,0,0,548.35,222.78Z" transform="translate(-114.11 -182.49)"/><path class="i" d="M525.51,205.78a7.63,7.63,0,0,0,.23.88c.61,1.66,2.1,2.88,4.82,3.59a2.35,2.35,0,0,0-1.18,1.35,3.09,3.09,0,0,1-2.3-.19c-1-.52-1.11-2.71-2.79-2.67-.36,0-.33.25-.06.49a3.24,3.24,0,0,1,1.08,1.77,2.69,2.69,0,0,0,2.41,2.25,7.63,7.63,0,0,0,1.25.11s-.25,1.66-.36,2.3-1.17.78-1.23,1.14c0,.14.32.21.59.25.53.09,1.71-.17,1.84-.94.1-.61.45-2.66.5-3a1.18,1.18,0,0,1,.6-1s-.63,4.21-.88,4.75-.6.48-.65.78,1.32.32,1.92-.57c.47-.69,1-4.84,1-4.84l.37.06s-.29,1.89-.44,2.75-.41,2,0,2.62c.3.41,1.35,1.21,1.44.65,0-.32-.53-.69-.39-1.58l.67-4.06c.5.08.2,1.41.2,1.41l-.36,2.48a1.29,1.29,0,0,0,.78,1.45c.37.2,1.2.37,1.27.15s-.91-.73-.8-1.43c.06-.42.13-.67.43-2.52s.16-2.59-.64-3.28c2.78.17,4.57-.21,5.68-1.86a2.64,2.64,0,0,0,.44-.78,10,10,0,0,0,.69-2.35,5.47,5.47,0,0,0-.85-4.11,4.33,4.33,0,0,0,.26-3.14c-.66-.36-2.55.23-3.6.69a12.91,12.91,0,0,0-6.08-.87c-2-2-3.24-1.92-3.24-1.92a4.7,4.7,0,0,0-.76,3.33,4.58,4.58,0,0,0-1.85,3.14A8.27,8.27,0,0,0,525.51,205.78Z" transform="translate(-114.11 -182.49)"/><path class="c" d="M248.9,454.9c-.28-.31-4.09-5.08-4.76-5.89s-1-.66-1.41-.6l-5.8,1c-.56.1-.92.32-.57.8l4.18,5.92-12.61,3-10-16.76c-.4-.59-.48-.8-1.39-.76s-7.87.62-8.37.67-1,.26-.54,1.43,8.39,18.2,8.62,18.69a1.68,1.68,0,0,0,2.13,1c1.37-.33,6.14-1.58,8.74-2.26,1.38,2.49,4.18,7.55,4.7,8.27.69,1,1.17.81,2.24.48.83-.25,13-4.63,13.54-4.85s.88-.38.51-.94c-.27-.4-3.48-4.7-5.16-6.95,1.15-.3,5.24-1.39,5.68-1.52s.59-.37.31-.69ZM226,459.59c-.15,0-7.21,1.73-7.59,1.81s-.38.05-.42-.08-8.4-17.36-8.52-17.58-.11-.38,0-.38l6.9-.6c.24,0,.21,0,.3.18l9.41,16.25C226.22,459.47,226.12,459.56,226,459.59Zm19.92,3.74c.11.17.23.29-.13.41s-12,4.05-12.18,4.14-.4.13-.69-.29-4.06-6.95-4.06-6.95l12.29-3.2c.3-.09.4-.16.6.15S245.78,463.15,245.89,463.33Zm.79-8.73-4.79,1.18-3.7-5.07c-.1-.15-.18-.29.08-.32l4.64-.84a.46.46,0,0,1,.58.22c.24.32,3.43,4.37,3.55,4.52s-.09.24-.36.31Z" transform="translate(-114.11 -182.49)"/><path class="c" d="M564,425.46a1,1,0,0,0-1.28.63.85.85,0,0,0,0,.17l-4.07,25.87a1.36,1.36,0,0,0,.91,1.51l19.39,6.41a1,1,0,0,0,1.22-.49l12.25-23.48a1,1,0,0,0-.43-1.35l-.16-.07L564,425.46Zm11.16,23.37L569,446.78l1.22-9.31,9.36,3.1-4.39,8.26Z" transform="translate(-114.11 -182.49)"/><path class="c" d="M144.55,394.37c1,.89,3,1.46,4.24.74l0,0c-.33,1.05,1.2,2.76,2.7,2.28l0,0a3,3,0,0,0,.67,3.81c2.09,1.82,4.39.35,5.89-1.38,1.84-2.1,2.45-4.33.13-6.35-2.85-2.49-5.36,2.52-6.91,1.17a1.07,1.07,0,0,1-.17-1.55,4.29,4.29,0,0,0-1-5.63,3.07,3.07,0,0,0-1-.58,9.91,9.91,0,0,0,.47-1l-2-1.78a8.1,8.1,0,0,1-1.44,2.62,4.45,4.45,0,0,0-1.68,7.57Zm9.73,2.23c.6-.69,1.57-1.56,2.46-.79s.38,1.72-.27,2.46-1.63,1.65-2.54.86-.28-1.82.35-2.53Zm-5.36-4.44a1.55,1.55,0,0,1-2.47.07c-2-1.74.18-4.19,2.13-2.48C149.4,390.46,149.69,391.28,148.92,392.16Zm13.6-11.56,2,1.73a5.2,5.2,0,0,1-1.21,2.19c-1.88,2.16-3.81.93-5.57-.6l-3.55-3.1,0,0,0,0a4.09,4.09,0,0,0-.81,1l-1.92-1.67.84-1a12.76,12.76,0,0,0-1.72-1.4l2-2.29a14.42,14.42,0,0,0,1.62,1.51l1.8-2.06,1.92,1.68s-.72.74-1.84,2l3.69,3.22c.6.52,1.44,1,2.09.27A2.87,2.87,0,0,0,162.52,380.6Zm-14.73-2.44a1.84,1.84,0,1,1-2.68.07A1.91,1.91,0,0,1,147.79,378.16Zm2.79,2.88c.53.59,8,7.11,8.82,7.68l-2,2.25c-.68-.71-8.15-7.24-8.81-7.69Z" transform="translate(-114.11 -182.49)"/></g></svg>