<svg xmlns="http://www.w3.org/2000/svg" viewBox="0 0 288.62 246.91"><defs><style>.a{isolation:isolate;}.b{fill:#cacafc;}.c{fill:#49439e;}.d{fill:#5752b7;}.e,.n{fill:#c1c1f9;}.f{opacity:0.35;}.g{fill:#fff;}.h{opacity:0.25;}.h,.n{mix-blend-mode:multiply;}.i{fill:#aeacf9;}.j{fill:#e6a42a;}.k{fill:#ededed;}.l{fill:#7979e0;}.m{fill:#cdcdfc;}.n{opacity:0.55;}.o{fill:#a2a1f3;}</style></defs><title>computer</title><g class="a"><path class="b" d="M-68.45,162c0,6.63,53.85,12,120.27,12s120.26-5.38,120.26-12-53.84-12-120.26-12S-68.45,155.35-68.45,162Z" transform="translate(94.74 72.92)"/><rect class="c" x="102.24" y="200.33" width="83.26" height="22.4"/><rect class="d" width="288.62" height="207.64" rx="9.39" ry="9.39"/><rect class="e" x="8.06" y="7.57" width="271.62" height="180.15" rx="5.77" ry="5.77"/><path class="d" d="M73.78,220.78H214a7.32,7.32,0,0,1,7.32,7.32v6.8a0,0,0,0,1,0,0H66.46a0,0,0,0,1,0,0v-6.8A7.32,7.32,0,0,1,73.78,220.78Z"/><g class="f"><rect class="g" x="72.93" y="20.01" width="190.05" height="127.75" rx="8.33" ry="8.33"/></g><g class="h"><rect class="i" x="166.63" y="111.86" width="5.69" height="5.69"/><rect class="j" x="166.63" y="121.82" width="5.69" height="5.69"/><rect class="k" x="173.88" y="124.28" width="18.02" height="3.23"/><rect class="k" x="173.88" y="114.31" width="18.02" height="3.23"/><rect class="i" x="200.07" y="111.86" width="5.69" height="5.69"/><rect class="j" x="200.07" y="121.82" width="5.69" height="5.69"/><rect class="k" x="207.32" y="124.28" width="18.02" height="3.23"/><rect class="k" x="207.32" y="114.31" width="18.02" height="3.23"/><rect class="i" x="230.17" y="111.86" width="5.69" height="5.69"/><rect class="j" x="230.17" y="121.82" width="5.69" height="5.69"/><rect class="k" x="237.42" y="124.28" width="11.86" height="3.23"/><rect class="k" x="237.42" y="114.31" width="11.86" height="3.23"/><rect class="k" x="167.69" y="57.54" width="81.59" height="1.48"/><rect class="k" x="85.52" y="39.33" width="163.76" height="3.4"/><rect class="k" x="167.45" y="62.15" width="81.83" height="1.48"/><rect class="k" x="167.45" y="52.93" width="81.83" height="1.48"/><rect class="k" x="167.45" y="66.76" width="81.83" height="1.48"/><rect class="k" x="167.45" y="71.38" width="81.83" height="1.48"/><rect class="k" x="167.45" y="75.99" width="81.83" height="1.48"/><rect class="k" x="167.45" y="80.6" width="81.83" height="1.48"/><rect class="k" x="167.45" y="85.22" width="81.83" height="1.48"/><rect class="k" x="167.45" y="89.83" width="81.83" height="1.48"/><rect class="k" x="177.47" y="94.44" width="71.82" height="1.48"/><path class="l" d="M159.91-52.91H-13.49a8.33,8.33,0,0,0-8.33,8.33v7.29H168.24v-7.29A8.33,8.33,0,0,0,159.91-52.91Z" transform="translate(94.74 72.92)"/><path class="m" d="M143.79-44.81a2.4,2.4,0,0,1-2.4,2.4,2.4,2.4,0,0,1-2.4-2.4,2.39,2.39,0,0,1,2.4-2.4A2.39,2.39,0,0,1,143.79-44.81Z" transform="translate(94.74 72.92)"/><circle class="m" cx="245.92" cy="28.11" r="2.4"/><circle class="m" cx="255.71" cy="28.11" r="2.4"/></g><rect class="n" x="22.44" y="48.27" width="190.05" height="127.75" rx="8.33" ry="8.33"/><rect class="g" x="26.3" y="43.3" width="190.05" height="127.75" rx="8.33" ry="8.33"/><path class="o" d="M113.28-29.62H-60.12a8.32,8.32,0,0,0-8.33,8.32V-14H121.61V-21.3A8.32,8.32,0,0,0,113.28-29.62Z" transform="translate(94.74 72.92)"/><path class="m" d="M97.16-21.53a2.39,2.39,0,0,1-2.4,2.4,2.39,2.39,0,0,1-2.4-2.4,2.39,2.39,0,0,1,2.4-2.4A2.39,2.39,0,0,1,97.16-21.53Z" transform="translate(94.74 72.92)"/><path class="m" d="M107-21.53a2.4,2.4,0,0,1-2.4,2.4,2.39,2.39,0,0,1-2.4-2.4,2.39,2.39,0,0,1,2.4-2.4A2.4,2.4,0,0,1,107-21.53Z" transform="translate(94.74 72.92)"/><path class="m" d="M116.74-21.53a2.4,2.4,0,0,1-2.41,2.4,2.4,2.4,0,0,1-2.4-2.4,2.4,2.4,0,0,1,2.4-2.4A2.4,2.4,0,0,1,116.74-21.53Z" transform="translate(94.74 72.92)"/></g></svg>