<svg xmlns="http://www.w3.org/2000/svg" viewBox="0 0 41.67 28.52"><defs><style>.a{fill:#bab7e2;}</style></defs><title>laravel</title><path class="a" d="M70.9,48.9c-.28-.31-4.09-5.08-4.76-5.89s-1-.66-1.41-.6l-5.8,1c-.56.1-.92.32-.57.8l4.18,5.92-12.61,3-10-16.76c-.4-.59-.48-.8-1.39-.76s-7.87.62-8.37.67-1,.26-.54,1.43S38,55.89,38.21,56.38a1.68,1.68,0,0,0,2.13,1c1.37-.33,6.14-1.58,8.74-2.26,1.38,2.49,4.18,7.55,4.7,8.27.69,1,1.17.81,2.24.48.83-.25,13-4.63,13.54-4.85s.88-.38.51-.94c-.27-.4-3.48-4.7-5.16-7,1.15-.3,5.24-1.39,5.68-1.52s.59-.37.31-.69ZM48,53.59c-.15,0-7.21,1.73-7.59,1.81s-.38.05-.42-.08S31.56,38,31.44,37.74s-.11-.38,0-.38l6.9-.6c.24,0,.21,0,.3.18l9.41,16.25C48.22,53.47,48.12,53.56,48,53.59Zm19.92,3.74c.11.17.23.29-.13.41s-12,4-12.18,4.14-.4.13-.69-.29-4.06-7-4.06-7l12.29-3.2c.3-.09.4-.16.6.15S67.78,57.15,67.89,57.33Zm.79-8.73-4.79,1.18-3.7-5.07c-.1-.15-.18-.29.08-.32l4.64-.84a.46.46,0,0,1,.58.22c.24.32,3.43,4.37,3.55,4.52s-.09.24-.36.31Z" transform="translate(-29.39 -35.59)"/></svg>