<svg xmlns="http://www.w3.org/2000/svg" viewBox="0 0 30.47 33.2"><defs><style>.a,.c{opacity:0.2;isolation:isolate;}.b{fill:#bab7e2;}.c,.d{fill:#fff;}</style></defs><title>vim</title><path class="a" d="M43.5,38.49a3.15,3.15,0,0,0-1.34,2L38.8,57.56a3.17,3.17,0,0,0,2.48,3.68L58.36,64.6a3.17,3.17,0,0,0,3.69-2.47l3.36-17.08a3.18,3.18,0,0,0-2.48-3.69L45.85,38A3.07,3.07,0,0,0,43.5,38.49Z" transform="translate(-35 -33.47)"/><path class="b" d="M43.22,38.06a3.08,3.08,0,0,0-1.34,2L38.52,57.13A3.18,3.18,0,0,0,41,60.82l17.09,3.36a3.18,3.18,0,0,0,3.69-2.48l3.35-17.08a3.17,3.17,0,0,0-2.47-3.69L45.57,37.57A3.16,3.16,0,0,0,43.22,38.06Z" transform="translate(-35 -33.47)"/><path class="c" d="M43.22,38.06a3.08,3.08,0,0,0-1.34,2L38.52,57.13a3.14,3.14,0,0,0,.64,2.56,3.13,3.13,0,0,1-.36-2.13l3.36-17.08a3.15,3.15,0,0,1,1.34-2A3.07,3.07,0,0,1,45.85,38l17.08,3.36a3.11,3.11,0,0,1,1.84,1.13,3.13,3.13,0,0,0-2.12-1.56L45.57,37.57A3.16,3.16,0,0,0,43.22,38.06Z" transform="translate(-35 -33.47)"/><path class="a" d="M36,48.5a1.54,1.54,0,0,0,1.72,2.56l.43-.28L47.87,65.3a3.08,3.08,0,0,0,5.59-1.09l5.76-27.62a1.54,1.54,0,0,0-1.89-2.43l-6,4A1.54,1.54,0,0,0,52,41L48.91,55.77l-5.66-8.43.42-.29A1.54,1.54,0,1,0,42,44.49Z" transform="translate(-35 -33.47)"/><path class="d" d="M35.68,48.07a1.55,1.55,0,0,0,1.73,2.57l.42-.29,9.75,14.53a3.1,3.1,0,0,0,4.29.84,3.06,3.06,0,0,0,1.3-1.93l5.76-27.63a1.54,1.54,0,0,0-1.88-2.43l-6,4a1.53,1.53,0,0,0,.64,2.8l-3.09,14.8L43,46.91l.43-.29a1.54,1.54,0,0,0-1.72-2.56Z" transform="translate(-35 -33.47)"/><path class="c" d="M35.68,48.07a1.56,1.56,0,0,0-.42,2.15c.05.07.11.13.17.2A1.53,1.53,0,0,1,36,48.5l6-4a1.54,1.54,0,0,1,2,.22,1,1,0,0,0-.12-.23,1.54,1.54,0,0,0-2.14-.42ZM51.07,37.75a1.54,1.54,0,0,0-.43,2.14c0,.07.11.13.16.19a1.53,1.53,0,0,1,.55-1.9l6-4a1.54,1.54,0,0,1,2,.23c0-.08-.08-.16-.13-.24a1.54,1.54,0,0,0-2.14-.42Zm.57,3.13-3,14.47.29.42L52,41A1.48,1.48,0,0,1,51.64,40.88Z" transform="translate(-35 -33.47)"/></svg>