<svg xmlns="http://www.w3.org/2000/svg" viewBox="0 0 96.6 26.25"><defs><style>.a{fill:#a19dd6;}</style></defs><title>github</title><path class="a" d="M20.25,48.15h-8.1a.35.35,0,0,0-.37.37v3.95a.35.35,0,0,0,.37.37h3.2v4.91a10.92,10.92,0,0,1-2.68.22c-2.31,0-5.58-.82-5.58-8s3.35-8.1,6.55-8.1a11.25,11.25,0,0,1,4.68.74.38.38,0,0,0,.45-.37l.89-3.87a.31.31,0,0,0-.15-.3c-.3-.22-2.16-1.26-6.84-1.26-5.43,0-11,2.3-11,13.38S8.06,63,13.41,63A13,13,0,0,0,20.55,61a.57.57,0,0,0,.15-.3V48.52A.47.47,0,0,0,20.25,48.15Z" transform="translate(-1.66 -36.85)"/><path class="a" d="M62.12,38.26a.35.35,0,0,0-.37-.37H57.14a.35.35,0,0,0-.37.37v8.85H49.63V38.26a.35.35,0,0,0-.37-.37H44.65a.35.35,0,0,0-.38.37v24a.35.35,0,0,0,.38.37h4.61a.35.35,0,0,0,.37-.37V52h7.14V62.21a.35.35,0,0,0,.37.37h4.61a.35.35,0,0,0,.37-.37Z" transform="translate(-1.66 -36.85)"/><path class="a" d="M28.88,41.46a3,3,0,1,0-3,3A3,3,0,0,0,28.88,41.46Z" transform="translate(-1.66 -36.85)"/><path class="a" d="M28.51,57.15V46.07a.35.35,0,0,0-.37-.37H23.6a.41.41,0,0,0-.37.44V62c0,.45.3.6.67.6H28c.44,0,.59-.22.59-.6C28.51,61.17,28.51,57.82,28.51,57.15Z" transform="translate(-1.66 -36.85)"/><path class="a" d="M79.52,45.77H75a.35.35,0,0,0-.38.37V57.89a5.42,5.42,0,0,1-2.82.82c-1.64,0-2.08-.74-2.08-2.38V46.07a.35.35,0,0,0-.38-.37H64.72a.35.35,0,0,0-.37.37v11c0,4.76,2.68,6,6.32,6a10.89,10.89,0,0,0,5.43-1.64s.15.89.15,1,.22.22.3.22h2.9a.35.35,0,0,0,.37-.37V46.14A.3.3,0,0,0,79.52,45.77Z" transform="translate(-1.66 -36.85)"/><path class="a" d="M91.87,45.25a8.48,8.48,0,0,0-4.32,1.12V38.26a.35.35,0,0,0-.37-.37H82.57a.35.35,0,0,0-.37.37v24a.35.35,0,0,0,.37.37h3.2c.15,0,.22-.07.3-.22a10.8,10.8,0,0,0,.22-1.12A8.13,8.13,0,0,0,91.72,63c4.16,0,6.54-2.09,6.54-9.52S94.47,45.25,91.87,45.25ZM90.08,58.71A6.18,6.18,0,0,1,87.41,58V50.38a5.37,5.37,0,0,1,2.37-.74c1.64-.15,3.2.37,3.2,4.24C93,58,92.31,58.79,90.08,58.71Z" transform="translate(-1.66 -36.85)"/><path class="a" d="M41.67,45.77H38.25V41.24c0-.15-.07-.23-.3-.23H33.27c-.15,0-.3.08-.3.23v4.68s-2.38.6-2.53.6a.48.48,0,0,0-.3.37v3a.35.35,0,0,0,.38.37H32.9V57.3c0,5.28,3.71,5.8,6.17,5.8a11,11,0,0,0,2.75-.45.4.4,0,0,0,.22-.37V59a.35.35,0,0,0-.37-.37c-.22,0-.74.07-1.26.07-1.71,0-2.23-.82-2.23-1.78v-6.7H41.6a.35.35,0,0,0,.37-.37V46.14C42,45.92,41.89,45.77,41.67,45.77Z" transform="translate(-1.66 -36.85)"/></svg>