<svg xmlns="http://www.w3.org/2000/svg" viewBox="0 0 126.16 33.42"><defs><style>.a{fill:#a19dd6;}.b{fill:#fff;}</style></defs><title>linkedin</title><path class="a" d="M80.14,35.82a2.42,2.42,0,0,1,2.46-2.39h28.3a2.42,2.42,0,0,1,2.45,2.39V64.45a2.42,2.42,0,0,1-2.45,2.4H82.6a2.43,2.43,0,0,1-2.46-2.4Z" transform="translate(12.81 -33.43)"/><path class="a" d="M-12.81,61.42H1.05V56.87H-7.79V39.51h-5Z" transform="translate(12.81 -33.43)"/><path class="a" d="M8.07,61.42V46.33h-5V61.42ZM5.56,44.27a2.61,2.61,0,1,0,0-5.21,2.61,2.61,0,1,0-.07,5.21Z" transform="translate(12.81 -33.43)"/><path class="a" d="M10.39,61.42h5V53a3.5,3.5,0,0,1,.16-1.23,2.76,2.76,0,0,1,2.58-1.83c1.81,0,2.54,1.38,2.54,3.41v8.07h5V52.77c0-4.64-2.47-6.79-5.77-6.79a5,5,0,0,0-4.55,2.54h0V46.33h-5c.07,1.42,0,15.09,0,15.09Z" transform="translate(12.81 -33.43)"/><path class="a" d="M32.78,39.51h-5V61.42h5V56.53L34,55,38,61.42h6.17l-6.6-9.36,5.77-6.38h-6s-4.13,5.7-4.49,6.38V39.51Z" transform="translate(12.81 -33.43)"/><path class="a" d="M57.54,55.13a11.7,11.7,0,0,0,.17-2c0-3.9-2-7.86-7.2-7.86-5.57,0-8.15,4.41-8.15,8.41,0,4.94,3.14,8,8.61,8a15.71,15.71,0,0,0,5.84-1l-.66-3.32a13.55,13.55,0,0,1-4.45.68c-2.34,0-4.39-1-4.55-3l10.39,0Zm-10.43-3.4a3.28,3.28,0,0,1,3.14-3.18c2.27,0,2.8,2,2.8,3.18Z" transform="translate(12.81 -33.43)"/><path class="a" d="M70.08,39.51V47.1H70a5,5,0,0,0-4.26-1.77c-3.86,0-7.26,3.09-7.22,8.37,0,4.89,3.07,8.08,6.89,8.08a5.69,5.69,0,0,0,5-2.64h.1l.2,2.28h4.45c-.06-1.06-.13-2.9-.13-4.7V39.51Zm0,14.93A6.16,6.16,0,0,1,70,55.53a3,3,0,0,1-2.94,2.35c-2.08,0-3.43-1.67-3.43-4.31,0-2.48,1.15-4.48,3.46-4.48A3,3,0,0,1,70,51.48a4.54,4.54,0,0,1,.06.9v2.06Z" transform="translate(12.81 -33.43)"/><path class="b" d="M90.21,61.4V46.31h-5V61.4ZM87.7,44.25a2.61,2.61,0,1,0-2.8-2.6,2.61,2.61,0,0,0,2.8,2.6Z" transform="translate(12.81 -33.43)"/><path class="b" d="M93,61.4h5V53a3.33,3.33,0,0,1,.17-1.23,2.73,2.73,0,0,1,2.57-1.83c1.81,0,2.54,1.38,2.54,3.41V61.4h5V52.75c0-4.63-2.47-6.79-5.77-6.79A5,5,0,0,0,98,48.5h0V46.31H93c.07,1.42,0,15.09,0,15.09Z" transform="translate(12.81 -33.43)"/></svg>