<svg xmlns="http://www.w3.org/2000/svg" viewBox="0 0 121.27 32.75"><defs><style>.a{fill:#a19dd6;}.b{fill:#fff;}</style></defs><title>moi_krug</title><rect class="a" width="121.27" height="32.75" rx="4" ry="4"/><path class="b" d="M8,48.33l3.7-6.13h4.66V57.86H12v-9L8.91,54.16H7.16L4,48.91v9H-.33V42.2H4.34Z" transform="translate(10.43 -34.1)"/><path class="b" d="M24.27,58.24a5.93,5.93,0,1,1,5.93-5.93A6,6,0,0,1,24.27,58.24Zm2-5.93a1.95,1.95,0,1,0-1.94,1.95A2,2,0,0,0,26.31,52.31Z" transform="translate(10.43 -34.1)"/><path class="b" d="M39.63,57.86V52.6l-3.69,5.26H31.76V46.67h4.18v5.25l3.69-5.25h4.19V57.86Zm1.37-16,1.16,2.33a9.12,9.12,0,0,1-8.94,0l1.36-2.33a7.6,7.6,0,0,0,3.21.87A7.32,7.32,0,0,0,41,41.91Z" transform="translate(10.43 -34.1)"/><path class="b" d="M55.39,57.86H51.21V46.67h4.18Zm3.4-11.19h4.38l-3.6,5.55,3.89,5.64H59l-3.59-5.64Z" transform="translate(10.43 -34.1)"/><path class="b" d="M68.9,46.67v1.46a3.29,3.29,0,0,1,2.92-1.75c3.31,0,5.06,2.63,5.06,5.93s-1.75,5.93-5.06,5.93a3.4,3.4,0,0,1-2.92-1.75v6H64.72V46.67Zm0,4.38v2.53a2.07,2.07,0,0,0,1.56.78,1.95,1.95,0,0,0,0-3.89A1.37,1.37,0,0,0,68.9,51.05Z" transform="translate(10.43 -34.1)"/><path class="b" d="M81.84,57.86,77.17,46.67h4.47L84,52.8l2.62-6.13h4.47l-7,15.76H79.89Z" transform="translate(10.43 -34.1)"/><path class="b" d="M92.14,57.86V46.67h9.14v3.8h-5v7.39Z" transform="translate(10.43 -34.1)"/></svg>